# xmcd
#
# Track frame offsets:
#	150
#	21507
#	41457
#	53600
#	72137
#	95060
#	112692
#	137540
#	160207
#
# Disc length: 2334 seconds
#
# Revision: 1
# Processed by: cddbd v1.5.1PL0 Copyright (c) Steve Scherf et al.
# Submitted via: CDex 1.50Beta5
#
DISCID=6d091c09
DTITLE=Various Artist - Slow Music
DYEAR=2002
DGENRE=Listening
TTITLE0=Ann Sally With BE THE Voice/Altogether Alone
TTITLE1=Kotez and Yancy/ろっかまいべいびい
TTITLE2=高田　蓮/Instrumental ?
TTITLE3=Be The Voice/Rock With You
TTITLE4=Black Bottom Brass Band Feat. 上田正樹/Happy Love
TTITLE5=Kasumi Kawamura/Overjoyed
TTITLE6=Saigenji/記憶〜弾き語り〜
TTITLE7=森　孝人/We've Only Just Begun
TTITLE8=畠山美由紀 With Soul Bossa Trio/Dindi
EXTD=
EXTT0=
EXTT1=
EXTT2=
EXTT3=
EXTT4=
EXTT5=
EXTT6=
EXTT7=
EXTT8=
PLAYORDER=
